<mxfile host="app.diagrams.net" modified="2023-10-26T10:20:00.599Z" agent="Mozilla/5.0 (Macintosh; Intel Mac OS X 10_15_7) AppleWebKit/537.36 (KHTML, like Gecko) Chrome/118.0.0.0 Safari/537.36" etag="gSCe0wLBWfF-SqXPXdeY" version="22.0.8" type="github">
  <diagram name="Seite-1" id="AFe3_xiZWw6bGmPmBy-W">
    <mxGraphModel dx="1026" dy="654" grid="1" gridSize="10" guides="1" tooltips="1" connect="1" arrows="1" fold="1" page="1" pageScale="1" pageWidth="827" pageHeight="1169" math="0" shadow="0">
      <root>
        <mxCell id="0" />
        <mxCell id="1" parent="0" />
        <mxCell id="UjHKhjJmp_GbaxRpM0CP-1" value="Zoo Verwaltung" style="ellipse;whiteSpace=wrap;html=1;" vertex="1" parent="1">
          <mxGeometry x="350" y="260" width="120" height="80" as="geometry" />
        </mxCell>
        <mxCell id="UjHKhjJmp_GbaxRpM0CP-4" value="Reinigungskraft" style="rounded=0;whiteSpace=wrap;html=1;" vertex="1" parent="1">
          <mxGeometry x="110" y="450" width="120" height="60" as="geometry" />
        </mxCell>
        <mxCell id="UjHKhjJmp_GbaxRpM0CP-5" value="Tierarzt" style="rounded=0;whiteSpace=wrap;html=1;" vertex="1" parent="1">
          <mxGeometry x="590" y="460" width="120" height="60" as="geometry" />
        </mxCell>
        <mxCell id="UjHKhjJmp_GbaxRpM0CP-6" value="Verwaltung" style="rounded=0;whiteSpace=wrap;html=1;" vertex="1" parent="1">
          <mxGeometry x="350" y="30" width="120" height="60" as="geometry" />
        </mxCell>
        <mxCell id="UjHKhjJmp_GbaxRpM0CP-7" value="Pfleger" style="rounded=0;whiteSpace=wrap;html=1;" vertex="1" parent="1">
          <mxGeometry x="660" y="150" width="120" height="60" as="geometry" />
        </mxCell>
        <mxCell id="UjHKhjJmp_GbaxRpM0CP-8" value="Besucher" style="rounded=0;whiteSpace=wrap;html=1;" vertex="1" parent="1">
          <mxGeometry x="70" y="150" width="120" height="60" as="geometry" />
        </mxCell>
        <object label="" id="UjHKhjJmp_GbaxRpM0CP-9">
          <mxCell style="endArrow=classic;html=1;exitX=0;exitY=0;exitDx=0;exitDy=0;entryX=1;entryY=0.5;entryDx=0;entryDy=0;curved=1;" edge="1" parent="1" source="UjHKhjJmp_GbaxRpM0CP-1" target="UjHKhjJmp_GbaxRpM0CP-8">
            <mxGeometry width="50" height="50" relative="1" as="geometry">
              <mxPoint x="440" y="270" as="sourcePoint" />
              <mxPoint x="390" y="320" as="targetPoint" />
              <Array as="points">
                <mxPoint x="290" y="210" />
              </Array>
            </mxGeometry>
          </mxCell>
        </object>
        <mxCell id="UjHKhjJmp_GbaxRpM0CP-10" value="Karte des Zoos" style="text;html=1;strokeColor=none;fillColor=none;align=center;verticalAlign=middle;whiteSpace=wrap;rounded=0;rotation=30;" vertex="1" parent="1">
          <mxGeometry x="270" y="190" width="60" height="30" as="geometry" />
        </mxCell>
        <object label="" id="UjHKhjJmp_GbaxRpM0CP-11">
          <mxCell style="endArrow=classic;html=1;entryX=1;entryY=1;entryDx=0;entryDy=0;curved=1;exitX=0;exitY=0;exitDx=0;exitDy=0;" edge="1" parent="1" source="UjHKhjJmp_GbaxRpM0CP-1" target="UjHKhjJmp_GbaxRpM0CP-8">
            <mxGeometry width="50" height="50" relative="1" as="geometry">
              <mxPoint x="319.4565222889612" y="310.5138343919717" as="sourcePoint" />
              <mxPoint x="140" y="250" as="targetPoint" />
              <Array as="points">
                <mxPoint x="250" y="260" />
              </Array>
            </mxGeometry>
          </mxCell>
        </object>
        <mxCell id="UjHKhjJmp_GbaxRpM0CP-12" value="Infos zu Tieren" style="text;html=1;strokeColor=none;fillColor=none;align=center;verticalAlign=middle;whiteSpace=wrap;rounded=0;rotation=20;" vertex="1" parent="1">
          <mxGeometry x="220" y="250" width="60" height="30" as="geometry" />
        </mxCell>
        <mxCell id="UjHKhjJmp_GbaxRpM0CP-13" value="" style="endArrow=classic;html=1;rounded=0;exitX=0.5;exitY=1;exitDx=0;exitDy=0;entryX=0.5;entryY=0;entryDx=0;entryDy=0;" edge="1" parent="1" source="UjHKhjJmp_GbaxRpM0CP-6" target="UjHKhjJmp_GbaxRpM0CP-1">
          <mxGeometry width="50" height="50" relative="1" as="geometry">
            <mxPoint x="390" y="320" as="sourcePoint" />
            <mxPoint x="440" y="270" as="targetPoint" />
          </mxGeometry>
        </mxCell>
        <mxCell id="UjHKhjJmp_GbaxRpM0CP-14" value="Tiere im Zoo, Daten über Tiere" style="text;html=1;strokeColor=none;fillColor=none;align=center;verticalAlign=middle;whiteSpace=wrap;rounded=0;" vertex="1" parent="1">
          <mxGeometry x="410" y="160" width="60" height="30" as="geometry" />
        </mxCell>
        <mxCell id="UjHKhjJmp_GbaxRpM0CP-16" value="" style="endArrow=classic;html=1;rounded=0;exitX=0.25;exitY=1;exitDx=0;exitDy=0;entryX=0.3;entryY=0.025;entryDx=0;entryDy=0;entryPerimeter=0;" edge="1" parent="1" source="UjHKhjJmp_GbaxRpM0CP-6" target="UjHKhjJmp_GbaxRpM0CP-1">
          <mxGeometry width="50" height="50" relative="1" as="geometry">
            <mxPoint x="420" y="100" as="sourcePoint" />
            <mxPoint x="420" y="270" as="targetPoint" />
          </mxGeometry>
        </mxCell>
        <mxCell id="UjHKhjJmp_GbaxRpM0CP-17" value="Mitarbeiterdaten" style="text;html=1;strokeColor=none;fillColor=none;align=center;verticalAlign=middle;whiteSpace=wrap;rounded=0;rotation=-90;" vertex="1" parent="1">
          <mxGeometry x="340" y="150" width="60" height="30" as="geometry" />
        </mxCell>
        <object label="" id="UjHKhjJmp_GbaxRpM0CP-18">
          <mxCell style="endArrow=classic;html=1;entryX=0;entryY=1;entryDx=0;entryDy=0;curved=1;exitX=1;exitY=0.5;exitDx=0;exitDy=0;" edge="1" parent="1" source="UjHKhjJmp_GbaxRpM0CP-4" target="UjHKhjJmp_GbaxRpM0CP-1">
            <mxGeometry width="50" height="50" relative="1" as="geometry">
              <mxPoint x="378" y="282" as="sourcePoint" />
              <mxPoint x="200" y="220" as="targetPoint" />
              <Array as="points">
                <mxPoint x="260" y="410" />
                <mxPoint x="290" y="380" />
                <mxPoint x="320" y="360" />
              </Array>
            </mxGeometry>
          </mxCell>
        </object>
        <mxCell id="UjHKhjJmp_GbaxRpM0CP-19" value="Krankmeldungen, Stechzeiten, usw" style="text;html=1;strokeColor=none;fillColor=none;align=center;verticalAlign=middle;whiteSpace=wrap;rounded=0;rotation=-50;" vertex="1" parent="1">
          <mxGeometry x="220" y="380" width="60" height="30" as="geometry" />
        </mxCell>
        <object label="" id="UjHKhjJmp_GbaxRpM0CP-20">
          <mxCell style="endArrow=classic;html=1;entryX=1;entryY=1;entryDx=0;entryDy=0;curved=1;exitX=0.225;exitY=0.963;exitDx=0;exitDy=0;exitPerimeter=0;" edge="1" parent="1" source="UjHKhjJmp_GbaxRpM0CP-1" target="UjHKhjJmp_GbaxRpM0CP-4">
            <mxGeometry width="50" height="50" relative="1" as="geometry">
              <mxPoint x="378" y="282" as="sourcePoint" />
              <mxPoint x="200" y="220" as="targetPoint" />
              <Array as="points">
                <mxPoint x="350" y="430" />
              </Array>
            </mxGeometry>
          </mxCell>
        </object>
        <mxCell id="UjHKhjJmp_GbaxRpM0CP-21" value="Reinigungs&lt;br&gt;Aufträge" style="text;html=1;strokeColor=none;fillColor=none;align=center;verticalAlign=middle;whiteSpace=wrap;rounded=0;rotation=-50;" vertex="1" parent="1">
          <mxGeometry x="280" y="410" width="60" height="30" as="geometry" />
        </mxCell>
      </root>
    </mxGraphModel>
  </diagram>
</mxfile>
